<svg width="155" height="36" viewBox="0 0 155 36" fill="none" xmlns="http://www.w3.org/2000/svg">
<g id="katman_1" clip-path="url(#clip0_8112_3488)">
<path id="Vector" d="M46.4611 25.8865C47.9055 25.0605 48.8265 23.5034 48.8265 21.6062C48.8265 17.401 45.8051 16.0117 40.4558 16.0117H31.1641V30.2574H35.7249V27.2736H40.4735C41.1869 27.2736 41.8627 27.236 42.4811 27.1609C43.3248 27.987 44.0581 29.3188 44.3585 30.2398H49.0894C48.5836 28.7202 47.5875 26.918 46.4611 25.8843V25.8865ZM40.6789 23.9893H35.7227V19.296H40.6789C43.0819 19.296 44.4512 19.7266 44.4512 21.604C44.4314 23.499 43.0819 23.9871 40.6789 23.9871V23.9893Z" fill="#DE1F37"/>
<path id="Vector_2" d="M27.4866 16.0137H22.9258V30.2594H27.4866V16.0137Z" fill="#DE1F37"/>
<path id="Vector_3" d="M64.2366 16.0137H59.6758V30.2594H64.2366V16.0137Z" fill="#DE1F37"/>
<path id="Vector_4" d="M115.346 16.0137H110.785V30.2594H115.346V16.0137Z" fill="#DE1F37"/>
<path id="Vector_5" d="M98.9075 16.0137H89.8984V30.2594H98.9075C104.202 30.2594 108.104 27.8763 108.104 23.1277C108.104 18.3791 104.199 16.0137 98.9075 16.0137ZM98.3641 26.8625H94.4593V19.4106H98.3641C101.761 19.4106 103.563 20.6121 103.563 23.1277C103.563 25.6433 101.761 26.8625 98.3641 26.8625Z" fill="#DE1F37"/>
<path id="Vector_6" d="M81.8499 22.5071C79.1289 19.4658 75.8424 17.2704 71.7697 16.0137H67.9023V30.2594H72.2754V20.6297C76.4431 21.9814 80.2906 26.2242 82.1856 30.2594H86.2031V16.0137H81.83V22.5071H81.8499Z" fill="#DE1F37"/>
<path id="Vector_7" d="M7.53526 16.0137C4.53151 19.4106 0.308594 25.1354 0.308594 30.2594H4.85176C4.85176 29.4908 4.94673 28.7023 5.13226 27.9315H15.4753C15.663 28.72 15.758 29.4886 15.758 30.2594H20.3012C20.3012 25.1354 16.0783 19.4106 13.0745 16.0137H7.53747H7.53526ZM6.1659 24.9277C7.27243 22.5071 8.88695 20.2543 10.2961 18.6221C11.703 20.2543 13.3175 22.5071 14.4262 24.9277H6.1659Z" fill="#DE1F37"/>
<path id="Vector_8" d="M130.736 16.0137H125.199C122.196 19.4106 117.973 25.1354 117.973 30.2594H122.516C122.516 29.4908 122.609 28.7023 122.796 27.9315H133.139C133.327 28.72 133.42 29.4886 133.42 30.2594H137.963C137.963 25.1155 133.74 19.4106 130.736 16.0137ZM123.83 24.9277C124.936 22.5071 126.551 20.2543 127.96 18.6221C129.367 20.2543 130.982 22.5071 132.088 24.9277H123.83Z" fill="#DE1F37"/>
<path id="Vector_9" d="M153.961 25.0213C154.336 22.2429 153.661 19.8399 153.097 18.2629C152.704 17.1564 152.384 16.2729 152.103 15.4844C150.827 11.8998 150.584 11.2416 149.7 7.65702L149.4 6.4754L148.236 6.09993C144.707 4.95585 144.088 4.67315 140.596 3.11606C139.828 2.77813 138.964 2.385 137.893 1.91456C136.634 1.37123 134.721 0.620294 132.413 0.5452C128.866 0.414891 125.469 1.85934 122.296 4.82554L122.353 4.80787C121.545 5.52126 120.721 6.34729 119.875 7.30363C119.875 7.30363 119.895 7.36106 120.08 7.21087C121.189 6.30975 124.811 2.93053 134.666 7.36106C139.508 9.53878 144.163 11.4713 144.163 11.4713C144.163 11.4713 145.685 16.2575 147.43 21.2887C150.977 31.4816 147.297 34.8034 146.304 35.8172C146.153 35.9872 146.209 36.0049 146.209 36.0049C147.635 34.9735 148.779 33.9398 149.738 32.9261C152.141 30.5054 153.568 27.8572 153.961 25.0235V25.0213Z" fill="url(#paint0_linear_8112_3488)"/>
<path id="Vector_10" d="M149.414 6.43829L148.25 6.06282C144.721 4.91874 144.102 4.63604 140.61 3.07895C139.84 2.74102 138.978 2.34789 137.907 1.87745C136.648 1.33412 134.735 0.583185 132.425 0.508091C128.878 0.377781 125.481 1.82223 122.31 4.78843L122.365 4.77076C121.559 5.48415 120.733 6.31018 119.887 7.26653C119.887 7.26653 119.904 7.32395 120.092 7.17376C121.199 6.27264 124.823 2.89342 134.676 7.32395C139.519 9.50167 144.173 11.4342 144.173 11.4342L149.41 6.44049L149.414 6.43829Z" fill="#FFD49A"/>
</g>
<defs>
<linearGradient id="paint0_linear_8112_3488" x1="167.283" y1="51.3019" x2="129.933" y2="0.492188" gradientUnits="userSpaceOnUse">
<stop offset="0.18" stop-color="#FFD49A"/>
<stop offset="0.31" stop-color="#E6C18B"/>
<stop offset="0.57" stop-color="#B59366"/>
<stop offset="0.75" stop-color="#94734A"/>
</linearGradient>
<clipPath id="clip0_8112_3488">
<rect width="153.761" height="35.5017" fill="white" transform="translate(0.308594 0.5)"/>
</clipPath>
</defs>
</svg>
